<svg xmlns="http://www.w3.org/2000/svg" xmlns:xlink="http://www.w3.org/1999/xlink" id="Layer_1" x="0px" y="0px" viewBox="0 0 2000 504.35" style="enable-background:new 0 0 2000 504.35;" xml:space="preserve"><style type="text/css">	.st0{fill:#2075BC;}	.st1{fill:#105480;}	.st2{fill:#29AAE1;}	.st3{fill:#FFFFFF;}</style><path class="st0" d="M329.6,102.1c-51.05,33.67-82.35,91.22-82.35,152.67c0,61.45,31.3,118.99,82.35,152.67 c51.05-33.67,82.36-91.22,82.36-152.67C411.96,193.33,380.66,135.77,329.6,102.1z"></path><g>	<path class="st1" d="M429.75,53.94c-29.09,0-56.71,6.24-81.67,17.36c61.76,40.21,99.73,109.44,99.73,183.47  c0,74.03-37.96,143.27-99.73,183.48c24.96,11.13,52.58,17.36,81.67,17.36c110.92,0,200.84-89.91,200.84-200.84  C630.58,143.85,540.66,53.94,429.75,53.94z"></path></g><g>	<path class="st2" d="M210.85,254.76c0-74.03,37.97-143.25,99.73-183.47C285.62,60.17,258,53.94,228.91,53.94  c-110.92,0-200.83,89.91-200.83,200.83c0,110.93,89.91,200.84,200.83,200.84c29.09,0,56.71-6.24,81.67-17.36  C248.81,398.03,210.85,328.79,210.85,254.76z"></path></g><path class="st3" d="M1083.52,79.09c-13.73-15.13-31.82-22.69-54.28-22.69c-24.36,0-43.6,7.79-57.74,23.37 c-14.15,15.58-21.22,36.45-21.22,62.62c0,24.35,6.94,44.13,20.82,59.33c13.88,15.2,32.35,22.8,55.42,22.8 c23.59,0,42.43-7.72,56.49-23.14c14.07-15.43,21.1-36.42,21.1-62.96C1104.11,113.99,1097.25,94.21,1083.52,79.09z M1068.72,189.92 c-10.28,11.65-24.35,17.47-42.2,17.47c-16.72,0-30.27-6.1-40.67-18.32c-10.4-12.21-15.6-28.34-15.6-48.38 c0-20.04,5.33-36.23,15.99-48.55c10.67-12.33,24.54-18.49,41.63-18.49c17.55,0,31.31,5.86,41.3,17.59 c9.98,11.72,14.97,28.32,14.97,49.8C1084.15,161.97,1079,178.27,1068.72,189.92z"></path><path class="st3" d="M749.81,424.3c-1.89,1.66-4.35,2.97-7.37,3.91c-3.02,0.95-6.69,1.42-11,1.42c-3.93,0-7.83-0.38-11.68-1.13 c-3.86-0.76-7.58-1.82-11.18-3.18c-3.59-1.36-7.03-2.95-10.32-4.76c-3.29-1.81-6.33-3.74-9.13-5.79l-6.24,32.22 c2.72,1.44,5.86,2.83,9.42,4.2c3.55,1.36,7.39,2.59,11.51,3.68c4.12,1.1,8.47,1.97,13.05,2.61c4.58,0.64,9.28,0.97,14.12,0.97 c8.62,0,16.17-0.82,22.63-2.44c6.47-1.63,12-3.76,16.62-6.41c4.61-2.64,8.45-5.71,11.51-9.19c3.06-3.48,5.46-7.09,7.2-10.84 c1.74-3.75,2.97-7.47,3.69-11.18c0.72-3.7,1.08-7.1,1.08-10.21c0-5.37-0.72-10.21-2.16-14.52c-1.44-4.31-3.56-8.3-6.35-11.97 c-2.8-3.67-6.18-7.11-10.15-10.33c-3.97-3.21-8.53-6.41-13.67-9.59c-3.93-2.42-7.28-4.63-10.04-6.64c-2.76-2-4.99-3.97-6.69-5.9 c-1.7-1.93-2.95-3.93-3.74-6.01c-0.79-2.08-1.19-4.37-1.19-6.86c0-1.74,0.38-3.61,1.13-5.61c0.76-2,2-3.88,3.74-5.61 c1.74-1.74,4.08-3.2,7.03-4.37c2.95-1.17,6.58-1.76,10.89-1.76c3.86,0,7.56,0.34,11.12,1.02c3.55,0.68,6.94,1.55,10.15,2.61 c3.21,1.06,6.24,2.29,9.08,3.69c2.84,1.4,5.43,2.82,7.77,4.25l6.24-31.54c-2.72-1.13-5.75-2.23-9.07-3.29 c-3.33-1.05-6.88-2-10.66-2.83c-3.78-0.83-7.75-1.5-11.91-1.99c-4.16-0.49-8.47-0.74-12.93-0.74c-10.74,0-19.98,1.46-27.74,4.37 c-7.75,2.91-14.12,6.75-19.11,11.52c-4.99,4.76-8.66,10.17-11.01,16.22c-2.35,6.05-3.52,12.22-3.52,18.49 c0,5.53,0.75,10.54,2.27,15.03c1.51,4.5,3.63,8.58,6.35,12.25c2.72,3.67,5.97,7,9.76,9.98c3.78,2.99,7.98,5.77,12.59,8.34 c4.31,2.5,7.96,4.75,10.95,6.75c2.99,2.01,5.39,3.94,7.2,5.79c1.81,1.86,3.12,3.78,3.91,5.79c0.79,2,1.19,4.26,1.19,6.75 c0,2.5-0.42,4.84-1.25,7.04C753.06,420.7,751.7,422.63,749.81,424.3z"></path><path class="st3" d="M1211.44,120.38c4.99-6.81,7.49-14.82,7.49-24.05c0-11.04-4.12-20-12.36-26.89 c-8.25-6.88-19.4-10.32-33.47-10.32h-46.28V221.8h47.41c15.2,0,27.8-4.31,37.78-12.93c9.98-8.62,14.97-19.89,14.97-33.81 c0-11.19-3.29-20.29-9.87-27.28c-6.58-6.99-15.35-11.13-26.32-12.42v-0.45C1199.56,132.03,1206.45,127.18,1211.44,120.38z  M1207.01,174.83c0,9.23-3.08,16.49-9.24,21.78c-6.17,5.29-14.84,7.94-26.04,7.94h-25.87v-58.54h21.9 C1193.93,146.02,1207.01,155.62,1207.01,174.83z M1190,121.34c-5.98,5.03-14.18,7.54-24.62,7.54h-19.51V76.36h21.9 c20.8,0,31.2,7.9,31.2,23.71C1198.96,109.22,1195.97,116.31,1190,121.34z"></path><polygon class="st3" points="1255.34,59.12 1255.34,221.8 1339.74,221.8 1339.74,204.55 1274.4,204.55 1274.4,59.12 "></polygon><path class="st3" d="M1113.85,390.54c-0.6,4.73-0.91,9.06-0.91,12.99c0,8.62,1.36,16.32,4.09,23.09 c2.72,6.77,6.62,12.52,11.68,17.24c5.06,4.73,11.23,8.34,18.49,10.83c7.26,2.5,15.43,3.75,24.5,3.75c12.56,0,23.18-1.59,31.88-4.77 c8.69-3.17,15.97-7.75,21.84-13.73c5.86-5.97,10.57-13.23,14.12-21.78c3.55-8.55,6.46-18.15,8.73-28.81l20.76-96.43h-36.98 l-20.65,95.74c-1.51,7.19-3.4,13.22-5.67,18.1c-2.27,4.88-4.87,8.79-7.82,11.74c-2.95,2.95-6.28,5.07-9.98,6.35 c-3.71,1.29-7.71,1.93-12.03,1.93c-3.7,0-7.17-0.58-10.38-1.76c-3.22-1.17-6.01-2.89-8.4-5.16c-2.38-2.27-4.24-5.08-5.56-8.45 c-1.32-3.37-1.98-7.25-1.98-11.63c0-2.8,0.34-6.2,1.02-10.21c0.68-4,1.44-8.01,2.27-12.02l18.38-84.63h-36.98l-18.15,84.4 C1115.21,381.41,1114.45,385.82,1113.85,390.54z"></path><path class="st3" d="M905.8,140.17c4.42-2.61,8.21-5.77,11.34-9.47c3.14-3.7,5.56-7.92,7.26-12.65c1.7-4.73,2.56-9.93,2.56-15.6 c0-7.26-1.25-13.6-3.75-19c-2.5-5.41-5.95-9.93-10.38-13.56c-4.42-3.63-9.64-6.33-15.66-8.11c-6.01-1.78-12.58-2.67-19.68-2.67 h-48.55V221.8h19.06v-69.2h15.66c3.55,0,6.75,0.44,9.59,1.3c2.83,0.87,5.48,2.25,7.94,4.14c2.46,1.89,4.86,4.33,7.2,7.32 c2.34,2.99,4.76,6.6,7.26,10.83l27.23,45.61h22.69l-30.52-48.9c-2.19-3.55-4.18-6.67-5.96-9.36c-1.78-2.68-3.57-5.09-5.39-7.2 c-1.82-2.12-3.73-3.95-5.73-5.5c-2-1.55-4.37-2.93-7.09-4.14v-0.45C896.41,144.81,901.38,142.78,905.8,140.17z M887.09,133.2 c-4.05,1.44-8.45,2.15-13.22,2.15h-25.87V76.36h26.09c10.66,0,18.81,2.44,24.44,7.32c5.64,4.88,8.45,11.67,8.45,20.36 c0,4.84-0.83,9.21-2.49,13.11c-1.67,3.9-3.97,7.18-6.92,9.87C894.63,129.7,891.13,131.76,887.09,133.2z"></path><path class="st3" d="M722.53,160.31h21.44c18.08,0,32.42-4.92,43.05-14.75c10.62-9.83,15.94-22.46,15.94-37.89 c0-15.43-4.78-27.38-14.35-35.85c-9.57-8.47-23.05-12.7-40.44-12.7h-44.69V221.8h19.06V160.31z M722.53,76.36h22.35 c25.41,0,38.12,10.74,38.12,32.22c0,10.97-3.46,19.46-10.38,25.47c-6.92,6.01-16.96,9.02-30.12,9.02h-19.97V76.36z"></path><path class="st3" d="M818.78,367.63c-1.21,6.84-1.82,13.78-1.82,20.81c0,9.99,1.53,19.25,4.59,27.79 c3.06,8.55,7.51,15.94,13.33,22.18c5.82,6.24,12.95,11.14,21.38,14.69c8.43,3.56,18.02,5.34,28.76,5.34 c7.11,0,13.73-0.62,19.85-1.87c6.13-1.25,11.82-3.01,17.07-5.28c5.26-2.27,10.12-5.03,14.58-8.28c4.47-3.25,8.58-6.88,12.37-10.89 c4.46-4.69,8.37-9.87,11.74-15.54c3.36-5.67,6.16-11.59,8.39-17.75c2.23-6.16,3.91-12.54,5.05-19.12c1.13-6.58,1.7-13.12,1.7-19.62 c0-10.89-1.66-20.67-4.99-29.32c-3.33-8.66-7.98-16-13.95-22.01c-5.98-6.01-13.14-10.61-21.5-13.78 c-8.36-3.17-17.57-4.76-27.62-4.76c-6.65,0-12.89,0.57-18.72,1.7c-5.82,1.13-11.27,2.77-16.33,4.88c-5.07,2.12-9.8,4.63-14.18,7.54 c-4.39,2.91-8.47,6.18-12.25,9.81c-4.84,4.76-9.1,10.01-12.76,15.71c-3.67,5.71-6.73,11.72-9.19,18.04 C821.83,354.2,819.99,360.78,818.78,367.63z M856.84,374.43c0.72-4.57,1.76-9.06,3.12-13.44c1.36-4.39,3.02-8.55,4.99-12.48 c1.96-3.94,4.23-7.41,6.81-10.44c4.23-4.99,9.07-8.88,14.52-11.68c5.45-2.8,11.19-4.2,17.24-4.2c5.22,0,9.89,0.89,14.01,2.67 c4.12,1.78,7.62,4.36,10.49,7.72c2.87,3.36,5.08,7.47,6.64,12.31c1.55,4.84,2.32,10.32,2.32,16.45c0,4.16-0.34,8.47-1.02,12.93 c-0.68,4.46-1.66,8.85-2.95,13.16c-1.29,4.31-2.91,8.45-4.88,12.42c-1.97,3.97-4.27,7.54-6.92,10.72 c-4.23,5.37-9.17,9.42-14.8,12.14c-5.64,2.72-11.55,4.08-17.76,4.08c-4.99,0-9.51-0.87-13.56-2.61c-4.05-1.74-7.5-4.26-10.38-7.54 c-2.88-3.29-5.09-7.36-6.64-12.19c-1.55-4.84-2.32-10.33-2.32-16.45C855.77,383.53,856.12,379.01,856.84,374.43z"></path><polygon class="st3" points="1020.82,292.93 986.22,455.6 1083.33,455.6 1089.68,425.43 1029.67,425.43 1057.8,292.93 "></polygon><polygon class="st3" points="1282.53,322.76 1328.93,322.76 1300.91,455.6 1337.78,455.6 1365.92,322.76 1411.75,322.76  1418.21,292.93 1289,292.93 "></polygon><path class="st3" d="M1957.28,292.93c-3.78-0.83-7.76-1.5-11.91-1.99c-4.16-0.49-8.47-0.74-12.93-0.74 c-10.74,0-19.98,1.46-27.73,4.37c-7.75,2.91-14.12,6.75-19.12,11.52c-4.99,4.76-8.66,10.17-11,16.22 c-2.35,6.05-3.52,12.22-3.52,18.49c0,5.53,0.76,10.54,2.27,15.03c1.51,4.5,3.63,8.58,6.35,12.25c2.72,3.67,5.98,7,9.75,9.98 c3.78,2.99,7.98,5.77,12.59,8.34c4.31,2.5,7.96,4.75,10.95,6.75c2.99,2.01,5.39,3.94,7.2,5.79c1.81,1.86,3.12,3.78,3.91,5.79 c0.79,2,1.19,4.26,1.19,6.75c0,2.5-0.42,4.84-1.25,7.04c-0.83,2.19-2.19,4.12-4.08,5.79c-1.9,1.66-4.35,2.97-7.38,3.91 c-3.02,0.95-6.69,1.42-11,1.42c-3.94,0-7.83-0.38-11.68-1.13c-3.86-0.76-7.58-1.82-11.18-3.18c-3.59-1.36-7.03-2.95-10.32-4.76 c-3.29-1.81-6.34-3.74-9.13-5.79l-6.24,32.22c2.72,1.44,5.86,2.83,9.42,4.2c3.55,1.36,7.39,2.59,11.51,3.68 c4.12,1.1,8.47,1.97,13.05,2.61c4.57,0.64,9.28,0.97,14.12,0.97c8.63,0,16.17-0.82,22.64-2.44c6.46-1.63,12-3.76,16.62-6.41 c4.61-2.64,8.45-5.71,11.52-9.19c3.06-3.48,5.46-7.09,7.2-10.84c1.74-3.75,2.96-7.47,3.69-11.18c0.71-3.7,1.08-7.1,1.08-10.21 c0-5.37-0.72-10.21-2.16-14.52c-1.44-4.31-3.55-8.3-6.35-11.97c-2.8-3.67-6.18-7.11-10.15-10.33c-3.97-3.21-8.53-6.41-13.67-9.59 c-3.93-2.42-7.28-4.63-10.04-6.64c-2.76-2-4.99-3.97-6.69-5.9c-1.71-1.93-2.95-3.93-3.75-6.01c-0.79-2.08-1.19-4.37-1.19-6.86 c0-1.74,0.38-3.61,1.13-5.61c0.75-2,2-3.88,3.75-5.61c1.74-1.74,4.08-3.2,7.04-4.37c2.95-1.17,6.58-1.76,10.89-1.76 c3.86,0,7.56,0.34,11.12,1.02c3.55,0.68,6.94,1.55,10.15,2.61c3.22,1.06,6.24,2.29,9.08,3.69c2.83,1.4,5.42,2.82,7.77,4.25 l6.24-31.54c-2.72-1.13-5.75-2.23-9.08-3.29C1964.61,294.7,1961.06,293.76,1957.28,292.93z"></path><path class="st3" d="M1726.76,348.18c0.45-3.48,0.87-6.62,1.25-9.42h0.68c0.23,0.91,0.57,1.93,1.02,3.06 c0.46,1.13,0.94,2.32,1.47,3.57c0.53,1.25,1.06,2.48,1.59,3.69c0.53,1.21,1.02,2.27,1.47,3.17l50.94,103.35h33.46l34.37-162.68 h-34.6l-20.65,97.11c-0.23,1.06-0.47,2.27-0.74,3.63c-0.26,1.36-0.51,2.76-0.73,4.2c-0.23,1.44-0.42,2.86-0.57,4.26 c-0.15,1.4-0.27,2.67-0.34,3.8h-0.46c-0.23-0.91-0.58-1.97-1.08-3.18c-0.49-1.21-1.02-2.43-1.59-3.68c-0.57-1.25-1.13-2.46-1.7-3.63 c-0.57-1.17-1.04-2.17-1.42-3.01l-48.78-99.49h-36.3L1669.7,455.6h34.38l20.76-97.11C1725.66,355.1,1726.3,351.65,1726.76,348.18z"></path><polygon class="st3" points="1447.28,76.36 1447.28,59.12 1364.7,59.12 1364.7,221.8 1450.92,221.8 1450.92,204.55 1383.76,204.55  1383.76,147.6 1442.52,147.6 1442.52,130.47 1383.76,130.47 1383.76,76.36 "></polygon><path class="st3" d="M1573.32,172.11c-1.97,4.39-4.58,11.04-7.83,19.97h-0.68c-1.13-4.31-3.63-10.81-7.49-19.51l-49.91-113.44 h-25.18V221.8h18.37V112.89c0-14.75-0.3-25.37-0.91-31.88h0.46c1.66,7.49,3.29,13.05,4.88,16.68l55.47,124.1h9.3l55.59-125.01 c1.44-3.18,3.06-8.43,4.88-15.77h0.45c-1.06,12.48-1.59,23.03-1.59,31.65V221.8h18.95V59.12h-23.82L1573.32,172.11z"></path><polygon class="st3" points="1419.79,455.6 1456.77,455.6 1491.14,292.93 1454.16,292.93 "></polygon><path class="st3" d="M1618.82,294.97c-8.36-3.17-17.57-4.76-27.62-4.76c-6.66,0-12.9,0.57-18.72,1.7 c-5.82,1.13-11.27,2.77-16.33,4.88c-5.07,2.12-9.8,4.63-14.18,7.54c-4.39,2.91-8.47,6.18-12.25,9.81 c-4.84,4.76-9.09,10.01-12.76,15.71c-3.67,5.71-6.73,11.72-9.19,18.04c-2.46,6.31-4.3,12.89-5.5,19.74 c-1.21,6.84-1.82,13.78-1.82,20.81c0,9.99,1.53,19.25,4.6,27.79c3.06,8.55,7.5,15.94,13.33,22.18c5.82,6.24,12.95,11.14,21.39,14.69 c8.43,3.56,18.02,5.34,28.76,5.34c7.1,0,13.73-0.62,19.85-1.87c6.13-1.25,11.82-3.01,17.07-5.28c5.26-2.27,10.12-5.03,14.58-8.28 c4.46-3.25,8.58-6.88,12.37-10.89c4.46-4.69,8.37-9.87,11.74-15.54c3.37-5.67,6.17-11.59,8.39-17.75 c2.23-6.16,3.91-12.54,5.05-19.12c1.14-6.58,1.71-13.12,1.71-19.62c0-10.89-1.66-20.67-5-29.32c-3.33-8.66-7.98-16-13.95-22.01 C1634.34,302.74,1627.18,298.14,1618.82,294.97z M1619.45,374.27c-0.68,4.46-1.67,8.85-2.95,13.16c-1.29,4.31-2.92,8.45-4.88,12.42 c-1.97,3.97-4.28,7.54-6.92,10.72c-4.23,5.37-9.17,9.42-14.81,12.14c-5.64,2.72-11.55,4.08-17.75,4.08c-4.99,0-9.51-0.87-13.56-2.61 c-4.05-1.74-7.51-4.26-10.38-7.54c-2.88-3.29-5.09-7.36-6.64-12.19c-1.55-4.84-2.33-10.33-2.33-16.45c0-4.47,0.36-8.98,1.08-13.56 c0.72-4.57,1.76-9.06,3.12-13.44c1.36-4.39,3.03-8.55,4.99-12.48c1.96-3.94,4.23-7.41,6.81-10.44c4.23-4.99,9.08-8.88,14.52-11.68 c5.44-2.8,11.19-4.2,17.24-4.2c5.22,0,9.88,0.89,14.01,2.67c4.12,1.78,7.62,4.36,10.49,7.72c2.88,3.36,5.08,7.47,6.64,12.31 c1.55,4.84,2.32,10.32,2.32,16.45C1620.47,365.5,1620.12,369.8,1619.45,374.27z"></path></svg>